{
  "accessors": [
    {
      "bufferView": 2,
      "componentType": 5126,
      "count": 160,
      "max": [
        15.761281967163086,
        7.874017715454102,
        0.14111743867397308
      ],
      "min": [
        -15.761281967163086,
        -7.874015808105469,
        -1.2421809434890747
      ],
      "type": "VEC3"
    },
    {
      "bufferView": 2,
      "byteOffset": 1920,
      "componentType": 5126,
      "count": 160,
      "max": [
        0.9977321028709412,
        1.0,
        0.9980287551879883
      ],
      "min": [
        -0.9977321028709412,
        -1.0,
        -0.9977319836616516
      ],
      "type": "VEC3"
    },
    {
      "bufferView": 1,
      "componentType": 5126,
      "count": 160,
      "max": [
        1.0,
        1.0
      ],
      "min": [
        0.0,
        0.0
      ],
      "type": "VEC2"
    },
    {
      "bufferView": 0,
      "componentType": 5125,
      "count": 564,
      "type": "SCALAR"
    },
    {
      "bufferView": 2,
      "byteOffset": 3840,
      "componentType": 5126,
      "count": 4296,
      "max": [
        14.733150482177734,
        6.857745170593262,
        7.193485736846924
      ],
      "min": [
        -14.733150482177734,
        -6.8577446937561035,
        -0.571254312992096
      ],
      "type": "VEC3"
    },
    {
      "bufferView": 2,
      "byteOffset": 55392,
      "componentType": 5126,
      "count": 4296,
      "max": [
        0.993344783782959,
        0.9943303465843201,
        0.9999991655349731
      ],
      "min": [
        -0.9659286141395569,
        -0.9944032430648804,
        -0.9993606209754944
      ],
      "type": "VEC3"
    },
    {
      "bufferView": 1,
      "byteOffset": 1280,
      "componentType": 5126,
      "count": 4296,
      "max": [
        1.0,
        1.0
      ],
      "min": [
        0.5,
        0.06453333795070648
      ],
      "type": "VEC2"
    },
    {
      "bufferView": 0,
      "byteOffset": 2256,
      "componentType": 5125,
      "count": 19674,
      "type": "SCALAR"
    }
  ],
  "asset": {
    "extras": {
      "author": "milaink (https://sketchfab.com/milaink)",
      "license": "CC-BY-4.0 (http://creativecommons.org/licenses/by/4.0/)",
      "source": "https://sketchfab.com/3d-models/open-book-da652a84122141f29b9aae4e8843350a",
      "title": "Open Book"
    },
    "generator": "Sketchfab-15.27.0",
    "version": "2.0"
  },
  "bufferViews": [
    {
      "buffer": 0,
      "byteLength": 80952,
      "name": "floatBufferViews",
      "target": 34963
    },
    {
      "buffer": 0,
      "byteLength": 35648,
      "byteOffset": 80952,
      "byteStride": 8,
      "name": "floatBufferViews",
      "target": 34962
    },
    {
      "buffer": 0,
      "byteLength": 106944,
      "byteOffset": 116600,
      "byteStride": 12,
      "name": "floatBufferViews",
      "target": 34962
    }
  ],
  "buffers": [
    {
      "byteLength": 223544,
      "uri": "scene.bin"
    }
  ],
  "materials": [
    {
      "doubleSided": true,
      "name": "open_book_cover",
      "pbrMetallicRoughness": {
        "baseColorFactor": [
          0.219608,
          0.00784314,
          0.00784314,
          1.0
        ],
        "metallicFactor": 0.0,
        "roughnessFactor": 0.30000000000000004
      }
    },
    {
      "doubleSided": true,
      "name": "open_book_pages",
      "pbrMetallicRoughness": {
        "baseColorFactor": [
          0.494118,
          0.415686,
          0.298039,
          1.0
        ],
        "metallicFactor": 0.0,
        "roughnessFactor": 0.8929713596497552
      }
    }
  ],
  "meshes": [
    {
      "name": "open book_open book cover_0",
      "primitives": [
        {
          "attributes": {
            "NORMAL": 1,
            "POSITION": 0,
            "TEXCOORD_0": 2
          },
          "indices": 3,
          "material": 0,
          "mode": 4
        }
      ]
    },
    {
      "name": "open book_open book pages_0",
      "primitives": [
        {
          "attributes": {
            "NORMAL": 5,
            "POSITION": 4,
            "TEXCOORD_0": 6
          },
          "indices": 7,
          "material": 1,
          "mode": 4
        }
      ]
    }
  ],
  "nodes": [
    {
      "children": [
        1
      ],
      "matrix": [
        1.0,
        0.0,
        0.0,
        0.0,
        0.0,
        2.220446049250313e-16,
        -1.0,
        0.0,
        0.0,
        1.0,
        2.220446049250313e-16,
        0.0,
        0.0,
        0.0,
        0.0,
        1.0
      ],
      "name": "Sketchfab_model"
    },
    {
      "children": [
        2
      ],
      "matrix": [
        0.02539999969303608,
        0.0,
        0.0,
        0.0,
        0.0,
        0.0,
        0.02539999969303608,
        0.0,
        0.0,
        -0.02539999969303608,
        0.0,
        0.0,
        0.0,
        0.0,
        0.0,
        1.0
      ],
      "name": "588e5a9ae0154bd5bd13563d00b82b50.fbx"
    },
    {
      "children": [
        3
      ],
      "name": "RootNode"
    },
    {
      "children": [
        4,
        5
      ],
      "matrix": [
        1.0,
        0.0,
        0.0,
        0.0,
        0.0,
        2.220446049250313e-16,
        -1.0,
        0.0,
        0.0,
        1.0,
        2.220446049250313e-16,
        0.0,
        0.0,
        0.0,
        0.0,
        1.0
      ],
      "name": "open book"
    },
    {
      "mesh": 0,
      "name": "open book_open book cover_0"
    },
    {
      "mesh": 1,
      "name": "open book_open book pages_0"
    }
  ],
  "scene": 0,
  "scenes": [
    {
      "name": "Sketchfab_Scene",
      "nodes": [
        0
      ]
    }
  ]
}
